<?xml version="1.0" standalone="yes"?><svg xmlns="http://www.w3.org/2000/svg" cursor="default" style="zoom: 0.5;" width="512(null)" height="512(null)"><path d="M849,763 s0,-306 0,-402 s-96,-192 -192,-192 c-64,0 -64,0 -64,0 v-128 l-192,192 l192,192 v-128 s32,0 64,0 s64,32 64,64 s0,402 0,402 c-38,22 -64,63 -64,110 c0,71 57,128 128,128 s128,-57 128,-128 c0,-47 -26,-88 -64,-110 m-64,174 c-35,0 -64,-29 -64,-64 s29,-64 64,-64 s64,29 64,64 s-29,64 -64,64 m-512,-832 c-71,0 -128,57 -128,128 c0,47 26,88 64,110 v419 c-38,22 -64,63 -64,110 c0,71 57,128 128,128 s128,-57 128,-128 c0,-47 -26,-88 -64,-110 v-419 c38,-22 64,-63 64,-110 c0,-71 -57,-128 -128,-128 m0,832 c-35,0 -64,-29 -64,-64 s29,-64 64,-64 s64,29 64,64 s-29,64 -64,64 m0,-640 c-35,0 -64,-29 -64,-64 s29,-64 64,-64 s64,29 64,64 s-29,64 -64,64 " fill="#41BDF5"></path></svg>
